<svg width="23" height="22" viewBox="0 0 23 22" fill="none" xmlns="http://www.w3.org/2000/svg">
<g clip-path="url(#clip0_405_127)">
<path fill-rule="evenodd" clip-rule="evenodd" d="M18.7782 5.05132L5.17155 18.8249C4.74339 19.2584 4.04846 19.2584 3.6192 18.8249C3.19105 18.3904 3.19105 17.6871 3.6192 17.2526L17.2258 3.48C17.654 3.04548 18.3489 3.04548 18.7782 3.48C19.2074 3.91343 19.2074 4.61678 18.7782 5.05132ZM22.0014 3.1709L19.0823 0.308104C18.6497 -0.11753 17.957 -0.0974982 17.5332 0.339257L0.648456 17.7147C0.446453 17.9226 0.333374 18.2015 0.333374 18.4938V21.0956C0.333374 21.7101 0.824108 22.0001 1.43121 22.0001H3.94856C4.23509 22.0001 4.51065 21.9902 4.71595 21.7879L22.0025 4.73684C22.4438 4.3001 22.4438 3.60654 22.0014 3.1709Z" fill="black"/>
</g>
<defs>
<clipPath id="clip0_405_127">
<rect width="22" height="22" fill="white" transform="translate(0.333374)"/>
</clipPath>
</defs>
</svg>
