<svg width="26" height="26" viewBox="0 0 26 26" fill="none" xmlns="http://www.w3.org/2000/svg">
<path d="M15.6667 10.5374V19.1566M10.3334 10.5374V19.1566M5.00004 5.61215V20.1416C5.00004 21.5208 5.00004 22.21 5.29069 22.7367C5.54635 23.2001 5.954 23.5776 6.45577 23.8136C7.02564 24.0818 7.77203 24.0818 9.26259 24.0818H16.7375C18.228 24.0818 18.9734 24.0818 19.5432 23.8136C20.045 23.5776 20.454 23.2001 20.7096 22.7367C21 22.2105 21 21.5219 21 20.1454V5.61215M5.00004 5.61215H7.66671M5.00004 5.61215H2.33337M21 5.61215H18.3334M21 5.61215H23.6667M7.66671 5.61215H18.3334M7.66671 5.61215C7.66671 4.46471 7.66671 3.89128 7.86969 3.43871C8.14035 2.83531 8.65913 2.35561 9.31255 2.10567C9.8026 1.91821 10.4242 1.91821 11.6667 1.91821H14.3334C15.5759 1.91821 16.1971 1.91821 16.6872 2.10567C17.3406 2.35561 17.8596 2.83531 18.1303 3.43871C18.3332 3.89127 18.3334 4.46471 18.3334 5.61215" stroke="black" stroke-width="2.81442" stroke-linecap="round" stroke-linejoin="round"/>
</svg>
